<svg width="56" height="20" viewBox="0 0 56 20" fill="none" xmlns="http://www.w3.org/2000/svg">
<path d="M55.4766 20H0V0H55.4766V20ZM2.8125 2.5127V17.4668H10.4502V13.3867H17.666C23.3744 13.3867 25.0029 10.9546 25.0029 8.14062V7.61816C25.0029 4.80415 23.4548 2.5127 17.666 2.5127H2.8125ZM25.7783 2.5127V17.4668H33.3564V10.0703L37.3564 17.4668H40.9941L45.0137 10.0703V17.4668H52.6123V2.5127H43.0244L39.3662 9.16602L35.8486 2.5127H25.7783ZM15.7969 6.89453C16.8421 6.89453 17.1436 7.31667 17.1436 7.85938V7.89941C17.1435 8.40189 16.842 8.86426 15.7969 8.86426H10.4502V6.89453H15.7969Z" fill="white"/>
</svg>
