<svg width="1086" height="293" viewBox="0 0 1086 293" fill="none" xmlns="http://www.w3.org/2000/svg">
<path d="M387.166 51.3258H354.026V70.0652H318.947V1.38469H387.166C413.752 1.38469 420.86 11.9083 420.86 24.8321V27.2322C420.86 40.156 413.383 51.3258 387.166 51.3258ZM354.026 21.5088V30.5555H378.581C383.381 30.5555 384.766 28.4323 384.766 26.1245V25.9398C384.766 23.4474 383.381 21.5088 378.581 21.5088H354.026Z" fill="white"/>
<path d="M476.393 0H481.009C527.442 0 534.458 19.7549 534.458 34.1556V36.925C534.458 51.0488 527.35 71.4499 481.009 71.4499H476.393C430.145 71.4499 422.944 51.0488 422.944 36.925V34.1556C422.944 19.7549 429.96 0 476.393 0ZM498.271 36.0019V34.7095C498.271 28.7092 493.656 21.8781 478.609 21.8781C463.377 21.8781 459.038 28.7092 459.038 34.7095V35.8173C459.038 42.0022 463.839 49.3872 478.609 49.3872C493.563 49.3872 498.271 42.2791 498.271 36.0019Z" fill="white"/>
<path d="M573.809 28.8015H599.38C604.18 28.8015 605.749 26.9553 605.749 24.4628C605.749 21.8781 604.087 20.1241 599.38 20.1241H573.809V28.8015ZM573.809 48.0948V70.0652H538.73V1.38469H614.611C629.381 1.38469 641.659 5.07719 641.659 18.7394V19.5703C641.659 29.817 632.058 34.1556 625.781 35.448C636.766 37.5712 642.028 43.7561 642.028 52.7105V63.1418C642.028 66.5573 642.489 68.1267 643.228 69.5113V70.0652H607.134C606.672 69.6037 606.672 68.9575 606.672 67.942V59.6339C606.672 52.6182 603.257 48.0948 593.379 48.0948H573.809Z" fill="white"/>
<path d="M674.444 70.0652V25.0167H644.812V1.38469H739.155V25.0167H709.523V70.0652H674.444Z" fill="white"/>
<path d="M168.038 143.915V75.2347H214.286L230.441 105.79L247.242 75.2347H291.275V143.915H256.381V109.944L237.918 143.915H221.21L202.839 109.944V143.915H168.038Z" fill="white"/>
<path d="M332.027 75.2347V143.915H297.041V75.2347H332.027Z" fill="white"/>
<path d="M337.788 75.2347H377.39L409.7 106.436V75.2347H444.778V143.915H409.053L372.867 109.575V143.915H337.788V75.2347Z" fill="white"/>
<path d="M502.446 73.85H507.062C553.495 73.85 560.511 93.6049 560.511 108.006V110.775C560.511 124.899 553.403 145.3 507.062 145.3H502.446C456.198 145.3 448.997 124.899 448.997 110.775V108.006C448.997 93.6049 456.013 73.85 502.446 73.85ZM524.324 109.852V108.56C524.324 102.559 519.709 95.7281 504.662 95.7281C489.43 95.7281 485.092 102.559 485.092 108.56V109.667C485.092 115.852 489.892 123.237 504.662 123.237C519.616 123.237 524.324 116.129 524.324 109.852Z" fill="white"/>
<path d="M599.862 102.652H625.433C630.233 102.652 631.802 100.805 631.802 98.3129C631.802 95.7281 630.141 93.9742 625.433 93.9742H599.862V102.652ZM599.862 121.945V143.915H564.783V75.2347H640.664C655.434 75.2347 667.712 78.9272 667.712 92.5895V93.4203C667.712 103.667 658.111 108.006 651.834 109.298C662.819 111.421 668.081 117.606 668.081 126.56V136.992C668.081 140.407 668.543 141.977 669.281 143.361V143.915H633.187C632.725 143.454 632.725 142.808 632.725 141.792V133.484C632.725 126.468 629.31 121.945 619.432 121.945H599.862Z" fill="white"/>
<path d="M707.768 75.2347V143.915H672.782V75.2347H707.768Z" fill="white"/>
<path d="M742.146 143.915V98.8667H712.514V75.2347H806.857V98.8667H777.225V143.915H742.146Z" fill="white"/>
<path d="M846.773 143.915V119.545L807.541 75.2347H847.974L865.605 95.9127L883.514 75.2347H920.716L881.852 120.006V143.915H846.773Z" fill="white"/>
<path d="M282.431 217.765V172.717H252.799V149.085H347.142V172.717H317.51V217.765H282.431Z" fill="white"/>
<path d="M396.759 189.241L388.358 170.224L380.143 189.241H396.759ZM409.313 217.765L405.713 209.549H371.373L367.773 217.765H332.325L364.726 149.085H414.021L448.454 217.765H409.313Z" fill="white"/>
<path d="M449.888 149.085H484.967V193.302H532.6V217.765H449.888V149.085Z" fill="white"/>
<path d="M537.423 149.085H620.227V168.286H571.948V173.64H619.673V192.472H571.948V198.38H620.597V217.765H537.423V149.085Z" fill="white"/>
<path d="M625.589 149.085H665.191L697.5 180.286V149.085H732.579V217.765H696.854L660.667 183.425V217.765H625.589V149.085Z" fill="white"/>
<path d="M766.892 217.765V172.717H737.259V149.085H831.603V172.717H801.971V217.765H766.892Z" fill="white"/>
<path d="M0 291.615V222.935H46.2486L62.4033 253.49L79.2042 222.935H123.237V291.615H88.3431V257.644L69.8806 291.615H53.172L34.8018 257.644V291.615H0Z" fill="white"/>
<path d="M189.191 263.091L180.79 244.074L172.575 263.091H189.191ZM201.745 291.615L198.145 283.399H163.805L160.205 291.615H124.757L157.158 222.935H206.453L240.886 291.615H201.745Z" fill="white"/>
<path d="M242.32 222.935H281.922L314.232 254.136V222.935H349.311V291.615H313.586L277.399 257.275V291.615H242.32V222.935Z" fill="white"/>
<path d="M415.194 263.091L406.794 244.074L398.578 263.091H415.194ZM427.749 291.615L424.149 283.399H389.808L386.208 291.615H350.76L383.162 222.935H432.457L466.889 291.615H427.749Z" fill="white"/>
<path d="M508.855 293H506.455C468.053 293 458.914 274.168 458.914 258.383V255.613C458.914 238.166 469.437 221.55 511.716 221.55H514.67C563.319 221.55 567.935 238.813 567.935 248.782V248.875H532.118C531.656 247.121 529.348 242.32 514.117 242.32C500.454 242.32 495.008 248.136 495.008 256.444V257.275C495.008 265.86 500.177 272.691 513.84 272.691C527.502 272.691 531.194 268.445 531.194 266.599H512.64V252.567H568.396V291.615H544.857C544.211 289.677 542.457 286.169 540.703 284.415C538.487 286.446 530.364 293 508.855 293Z" fill="white"/>
<path d="M574.069 222.935H656.873V242.136H608.593V247.49H656.319V266.322H608.593V272.23H657.242V291.615H574.069V222.935Z" fill="white"/>
<path d="M662.234 291.615V222.935H708.483L724.637 253.49L741.438 222.935H785.471V291.615H750.577V257.644L732.115 291.615H715.406L697.036 257.644V291.615H662.234Z" fill="white"/>
<path d="M791.237 222.935H874.042V242.136H825.762V247.49H873.488V266.322H825.762V272.23H874.411V291.615H791.237V222.935Z" fill="white"/>
<path d="M879.403 222.935H919.005L951.315 254.136V222.935H986.393V291.615H950.668L914.482 257.275V291.615H879.403V222.935Z" fill="white"/>
<path d="M1020.71 291.615V246.567H991.074V222.935H1085.42V246.567H1055.78V291.615H1020.71Z" fill="white"/>
</svg>
